<svg viewBox="0 0 1000 1000" fill="none" preserveAspectRatio="xMidYMid meet" class="r-1ghhsy9" style="vertical-align: middle; width: 32px; height: 32px;"><path fill-rule="evenodd" clip-rule="evenodd" d="M562.168 159.724l325.95 162.727c15.062 7.519 15.298 28.898.404 36.746L465.19 582.283a82.875 82.875 0 01-75.639.83L123.74 450.409c-32.376-12.972-68.568 10.748-68.568 46.474 0 28.728 16.256 54.991 41.99 67.839l266.48 133.036c16.267-16.537 38.918-26.795 63.967-26.795 24.334 0 46.404 9.68 62.558 25.394L822.075 521.45a89.893 89.893 0 01-1.385-15.755c0-49.44 40.14-89.519 89.655-89.519S1000 456.255 1000 505.695c0 49.439-40.14 89.518-89.655 89.518-24.21 0-46.178-9.581-62.31-25.153L515.94 745.065a90.036 90.036 0 011.324 15.417c0 49.439-40.14 89.518-89.655 89.518s-89.655-40.079-89.655-89.518c0-4.572.343-9.063 1.006-13.451L68.622 612.068C26.566 591.072 0 548.153 0 501.205v-26.15c0-35.755 19.82-68.574 51.49-85.261l435.039-229.24a82.87 82.87 0 0175.639-.83zM427.609 794.912c19.044 0 34.483-15.415 34.483-34.43 0-19.016-15.439-34.431-34.483-34.431-19.044 0-34.482 15.415-34.482 34.431 0 19.015 15.438 34.43 34.482 34.43zm517.219-289.217c0 19.015-15.438 34.43-34.483 34.43-19.044 0-34.482-15.415-34.482-34.43s15.438-34.43 34.482-34.43c19.045 0 34.483 15.415 34.483 34.43z" fill="currentColor"></path></svg>