<?xml version="1.0" standalone="no"?><!DOCTYPE svg PUBLIC "-//W3C//DTD SVG 1.1//EN" "http://www.w3.org/Graphics/SVG/1.1/DTD/svg11.dtd"><svg t="1689228963830" class="icon" viewBox="0 0 1024 1024" version="1.1" xmlns="http://www.w3.org/2000/svg" p-id="28219" xmlns:xlink="http://www.w3.org/1999/xlink" width="64" height="64"><path d="M230.485333 904.618667a62.634667 62.634667 0 0 1-62.592-62.421334v-39.978666a32.042667 32.042667 0 1 1 64 0v40.149333l618.922667-1.493333-1.408-658.602667L230.4 183.765333l1.493333 38.656a32.042667 32.042667 0 0 1-64 0v-40.149333a62.677333 62.677333 0 0 1 62.592-62.677333h620.416a62.72 62.72 0 0 1 62.677334 62.677333v660.096a62.634667 62.634667 0 0 1-62.677334 62.421333z m458.581334-189.397334a132.266667 132.266667 0 1 0-264.533334 0 32 32 0 0 1-64 0 196.608 196.608 0 0 1 101.418667-171.733333 149.888 149.888 0 1 1 201.088-9.813333c-3.498667 3.413333-7.424 6.912-11.178667 10.069333a196.266667 196.266667 0 0 1 100.906667 171.52 32 32 0 0 1-64 0z m-218.24-287.914666a86.613333 86.613333 0 0 0 86.101333 86.314666 86.784 86.784 0 0 0 86.314667-86.314666 86.229333 86.229333 0 1 0-172.416 0z m-328.064 278.016a32 32 0 1 1 0-64h114.688a32 32 0 0 1 0 64z m0-160.341334a32 32 0 1 1 0-64h114.688a32 32 0 0 1 0 64z m0-162.133333a32.042667 32.042667 0 1 1 0-64h114.688a32.042667 32.042667 0 0 1 0 64z" p-id="28220"></path></svg>