<?xml version="1.0" standalone="no"?><!DOCTYPE svg PUBLIC "-//W3C//DTD SVG 1.1//EN" "http://www.w3.org/Graphics/SVG/1.1/DTD/svg11.dtd"><svg t="1689218994778" class="icon" viewBox="0 0 1024 1024" version="1.1" xmlns="http://www.w3.org/2000/svg" p-id="25313" xmlns:xlink="http://www.w3.org/1999/xlink" width="64" height="64"><path d="M214.016 385.536c5.248 7.68 11.264 15.104 18.048 22.272 25.984 27.52 62.72 50.816 106.624 67.968 14.976 5.888 30.848 10.88 47.488 15.36 29.568 7.552 61.568 12.544 94.848 14.464 10.112 0.64 20.48 0.896 30.976 0.896 10.496 0 20.864-0.256 30.976-0.896 33.28-1.92 65.28-6.912 94.848-14.464 16.64-4.352 32.512-9.472 47.488-15.36 43.904-17.024 80.512-40.448 106.624-67.968 6.784-7.04 12.8-14.592 18.048-22.272 5.504-8.064 10.24-16.384 13.952-24.96 7.04-16 10.88-32.896 10.88-50.432 0-108.416-144.512-196.352-322.688-196.352-178.176 0-322.688 87.936-322.688 196.352 0 17.408 3.712 34.304 10.88 50.432 3.456 8.576 8.192 16.896 13.696 24.96zM512 757.888c-130.816 0-244.096-42.112-311.808-107.392-7.04 16.128-10.88 33.024-10.88 50.56 0 108.416 144.512 196.352 322.688 196.352 178.176 0 322.688-87.808 322.688-196.352 0-17.408-3.712-34.304-10.88-50.56-67.712 65.28-180.992 107.392-311.808 107.392z" fill="#333333" p-id="25314"></path><path d="M754.176 505.472c-9.856 5.376-20.224 10.496-30.976 15.232-12.16 5.376-24.832 10.24-37.888 14.592-51.712 17.408-110.464 27.136-173.312 27.136-62.848 0-121.6-9.728-173.312-27.136-13.056-4.352-25.728-9.088-37.888-14.592-10.752-4.608-21.12-9.856-30.976-15.232-26.624-14.592-50.176-31.488-69.76-50.56a125.4144 125.4144 0 0 0-10.752 50.56c0 17.408 3.712 34.304 10.88 50.56 3.584 8.576 8.448 16.896 13.952 24.96 5.248 7.68 11.264 15.104 18.048 22.272 55.68 59.008 160.128 98.688 279.936 98.688 119.808 0 224.256-39.68 279.936-98.688 6.784-7.04 12.8-14.592 18.048-22.272 5.504-8.064 10.24-16.384 13.952-24.96 7.04-16.128 10.88-33.024 10.88-50.56 0-17.408-3.712-34.304-10.752-50.56-19.84 19.072-43.392 35.968-70.016 50.56z" fill="#333333" p-id="25315"></path></svg>