<svg width="232" height="236" viewBox="0 0 232 236" fill="none" xmlns="http://www.w3.org/2000/svg">
<path d="M77.33 128.405V157.983C77.3478 169.721 74.6795 181.307 69.5295 191.855C63.1787 204.884 53.2928 215.866 41.0001 223.547C28.7073 231.227 14.5029 235.297 0.00805664 235.292V123.883C0.00805664 123.078 0.00805664 122.29 0.00805664 121.51C0.883532 47.6816 43.6811 88.133 65.2003 113.228C72.4755 121.694 77.33 128.405 77.33 128.405Z" fill="url(#paint0_linear_10_87)"/>
<path d="M77.4482 128.558C77.4344 128.538 77.4182 128.521 77.4 128.505L77.365 128.475L77.3256 128.426C77.3256 128.426 45.4977 84.2456 22.6872 79.7151C12.2909 77.6489 3.75944 83.821 0.971057 106.159C0.284538 112.041 -0.0385416 117.961 0.00365651 123.883V44.4465C0.00213552 35.3197 2.81085 26.4137 8.04806 18.9389C13.2853 11.4642 20.697 5.78331 29.2758 2.66833C37.8547 -0.446645 47.1846 -0.84462 55.9976 1.5285C64.8105 3.90161 72.6791 8.93072 78.5338 15.9323L135.711 84.2894L139.493 88.8112L146.733 97.4697L154.613 106.868C157.068 216.088 81.0902 132.638 77.4482 128.558Z" fill="url(#paint1_linear_10_87)"/>
<path d="M157.305 96.2039V74.6978C157.305 33.4448 190.747 0.00292969 232 0.00292969V191.752C232 215.798 212.507 235.291 188.46 235.291C175.793 235.291 163.754 229.775 155.483 220.18L76.2356 126.947C101.309 133.355 117.765 135.458 127.79 133.179C145.054 129.256 154.591 113.158 157.305 96.2039Z" fill="url(#paint2_linear_10_87)"/>
<defs>
<linearGradient id="paint0_linear_10_87" x1="-16.7836" y1="54.7204" x2="224.7" y2="99.023" gradientUnits="userSpaceOnUse">
<stop stop-color="#01F9DB"/>
<stop offset="1" stop-color="#43ABD8"/>
</linearGradient>
<linearGradient id="paint1_linear_10_87" x1="76.9225" y1="9.67285" x2="348.957" y2="96.0737" gradientUnits="userSpaceOnUse">
<stop stop-color="#01F9DB"/>
<stop offset="0.609375" stop-color="#43D8B6"/>
</linearGradient>
<linearGradient id="paint2_linear_10_87" x1="153.152" y1="13.976" x2="442.48" y2="78.4888" gradientUnits="userSpaceOnUse">
<stop stop-color="#01F9C6"/>
<stop offset="1" stop-color="#43D8B6"/>
</linearGradient>
</defs>
</svg>
