<?xml version="1.0" standalone="no"?><!DOCTYPE svg PUBLIC "-//W3C//DTD SVG 1.1//EN" "http://www.w3.org/Graphics/SVG/1.1/DTD/svg11.dtd"><svg t="1689218935761" class="icon" viewBox="0 0 1024 1024" version="1.1" xmlns="http://www.w3.org/2000/svg" p-id="20313" xmlns:xlink="http://www.w3.org/1999/xlink" width="64" height="64"><path d="M512 960c-247.039484 0-448-200.960516-448-448S264.960516 64 512 64 960 264.960516 960 512 759.039484 960 512 960zM512 128c-211.744443 0-384 172.255557-384 384s172.255557 384 384 384 384-172.255557 384-384S723.744443 128 512 128z" fill="#575B66" p-id="20314"></path><path d="M694.559548 522.144013c-12.54369-12.607338-33.375299-12.640022-45.951673-0.063647l-104.608735 103.903454L543.99914 319.327402c0-17.759333-14.208843-32.160839-32.00086-32.160839-17.759333 0-32.00086 14.399785-32.00086 32.160839l0 308.319849-105.215966-106.688456c-12.480043-12.607338-32.704421-12.736353-45.311759-0.25631-12.640022 12.512727-12.672705 32.895364-0.192662 45.504421l159.359226 161.055342c6.271845 6.335493 14.592447 9.567746 22.880366 9.567746 8.160624 0 16.383174-3.168606 22.624056-9.311437 0.032684-0.063647 0.032684-0.063647 0.063647-0.127295 0.032684 0 0.063647 0 0.096331-0.063647l160.191802-159.679183C707.072275 555.104744 707.103239 534.720387 694.559548 522.144013z" fill="#575B66" p-id="20315"></path></svg>